<svg width="18" height="18" fill="none" xmlns="http://www.w3.org/2000/svg"><path fill-rule="evenodd" clip-rule="evenodd" d="M4.392.667l.022.002c.437.036.816.253 1.162.591.658.643 2.07 2.517 2.177 3.028.118.569-.008.938-.384 1.592l-.092.162c-.172.315-.199.445-.145.594.821 2.01 2.223 3.412 4.21 4.223.188.069.33.03.728-.199l.207-.117c.56-.307.914-.404 1.437-.295.508.107 2.384 1.52 3.025 2.177.338.346.555.726.593 1.191.04 1.131-1.34 2.724-2.182 3.202-.957.685-2.172.674-3.534.04C8.053 15.375 2.604 9.96 1.152 6.403l-.087-.2c-.552-1.317-.54-2.456.092-3.314C1.734 1.934 3.288.616 4.392.667zm-.067 1.219l-.074.004c-.566.075-1.702 1.053-2.08 1.675l-.066.097c-.325.53-.288 1.26.166 2.258l.087.203c1.463 3.283 6.528 8.278 9.749 9.619l.177.079c.932.395 1.637.377 2.209-.028l.042-.027c.177-.123.584-.493.898-.855.44-.509.69-.975.683-1.223-.01-.106-.091-.25-.249-.411-.477-.488-2.211-1.795-2.403-1.835-.18-.038-.33.013-.737.247l-.204.115c-.6.323-1.022.41-1.619.193-2.313-.944-3.956-2.586-4.91-4.923-.226-.625-.104-1.067.289-1.752l.094-.164c.178-.323.216-.46.182-.622-.04-.193-1.346-1.926-1.835-2.403-.162-.159-.304-.24-.41-.249l.01.002z" fill="#8C9EA4"/></svg>