<svg width="26" height="26" fill="none" xmlns="http://www.w3.org/2000/svg"><g filter="url(#filter0_b)"><path fill-rule="evenodd" clip-rule="evenodd" d="M12.634 25.268c6.977 0 12.634-5.657 12.634-12.634C25.268 5.656 19.61 0 12.634 0 5.656 0 0 5.656 0 12.634c0 6.977 5.656 12.634 12.634 12.634z" fill="#F1F4F5"/></g><path fill-rule="evenodd" clip-rule="evenodd" d="M17.372 8.107a1.02 1.02 0 00-1.441 0L12.57 11.47 9.272 8.172a1.02 1.02 0 00-1.44 1.44l3.296 3.298-3.361 3.362a1.02 1.02 0 101.44 1.44l3.362-3.36 3.297 3.296a1.02 1.02 0 001.442-1.441L14.01 12.91l3.361-3.361a1.02 1.02 0 000-1.442z" fill="#3F4C50"/><defs><filter id="filter0_b" x="-45.79" y="-45.79" width="116.847" height="116.847" filterUnits="userSpaceOnUse" color-interpolation-filters="sRGB"><feFlood flood-opacity="0" result="BackgroundImageFix"/><feGaussianBlur in="BackgroundImage" stdDeviation="22.895"/><feComposite in2="SourceAlpha" operator="in" result="effect1_backgroundBlur"/><feBlend in="SourceGraphic" in2="effect1_backgroundBlur" result="shape"/></filter></defs></svg>